<svg width="512" height="512" viewBox="0 0 512 512" fill="none" xmlns="http://www.w3.org/2000/svg">
<defs>
<linearGradient id="mainGrad" x1="0" y1="0" x2="512" y2="512" gradientUnits="userSpaceOnUse">
<stop offset="0" stop-color="#3B9AFF"/>
<stop offset="1" stop-color="#0066CC"/>
</linearGradient>
</defs>

<!-- Icon Group: Centered -->
<g transform="translate(106, 50) scale(0.6)">
    <!-- Leaves -->
    <path d="M256 220 
             Q256 120 180 80 
             Q120 60 180 140 
             Q220 180 256 220 Z" fill="url(#mainGrad)"/>
             
    <path d="M256 220 
             Q256 120 332 80 
             Q392 60 332 140 
             Q292 180 256 220 Z" fill="url(#mainGrad)"/>

    <!-- Stem -->
    <path d="M256 220 V 270" stroke="url(#mainGrad)" stroke-width="20" stroke-linecap="round"/>

    <!-- Coin 1 (Top) -->
    <ellipse cx="256" cy="270" rx="140" ry="40" fill="url(#mainGrad)"/>
    
    <!-- Coin 2 -->
    <path d="M116 270 
             V 310 
             C 116 350, 396 350, 396 310 
             V 270 
             C 396 310, 116 310, 116 270 Z" fill="url(#mainGrad)"/>

    <!-- Coin 3 -->
    <path d="M116 325 
             V 365 
             C 116 405, 396 405, 396 365 
             V 325 
             C 396 365, 116 365, 116 325 Z" fill="url(#mainGrad)"/>
             
    <!-- Coin 4 (Bottom) -->
    <path d="M116 380 
             V 420 
             C 116 460, 396 460, 396 420 
             V 380 
             C 396 420, 116 420, 116 380 Z" fill="url(#mainGrad)"/>
</g>
</svg>
