<svg width="512" height="512" viewBox="0 0 512 512" fill="none" xmlns="http://www.w3.org/2000/svg">
<defs>
<linearGradient id="blueGrad" x1="0" y1="0" x2="512" y2="512" gradientUnits="userSpaceOnUse">
<stop offset="0" stop-color="#3B9AFF"/>
<stop offset="1" stop-color="#0066CC"/>
</linearGradient>
</defs>
<circle cx="256" cy="256" r="256" fill="url(#blueGrad)"/>

<!-- Icon Group: Scaled and Centered -->
<g transform="translate(106, 100) scale(0.6)">
    <!-- Plant -->
    <path d="M250 150 Q250 220 250 250" stroke="white" stroke-width="15" stroke-linecap="round"/>
    <path d="M250 250 Q180 200 150 120 Q150 120 220 180 Z" fill="white"/>
    <path d="M250 250 Q320 200 350 120 Q350 120 280 180 Z" fill="white"/>
    
    <!-- Coins Stack -->
    <!-- Coin 3 (Bottom) -->
    <path d="M130 380 C130 350 370 350 370 380 C370 410 130 410 130 380" fill="white"/>
    <path d="M130 380 V410 C130 440 370 440 370 410 V380" fill="white"/>
    
    <!-- Coin 2 -->
    <path d="M130 330 C130 300 370 300 370 330 C370 360 130 360 130 330" fill="white"/>
    <path d="M130 330 V360 C130 390 370 390 370 360 V330" fill="white"/>

    <!-- Coin 1 -->
    <path d="M130 280 C130 250 370 250 370 280 C370 310 130 310 130 280" fill="white"/>
    <path d="M130 280 V310 C130 340 370 340 370 310 V280" fill="white"/>

    <!-- Top Coin Surface -->
    <ellipse cx="250" cy="280" rx="120" ry="35" fill="white"/>
</g>
</svg>
