<svg width="512" height="512" viewBox="0 0 512 512" fill="none" xmlns="http://www.w3.org/2000/svg">
<circle cx="256" cy="256" r="256" fill="#3B82F6"/>
<path d="M180 360C180 348 200 340 256 340C312 340 332 348 332 360C332 372 312 380 256 380C200 380 180 372 180 360Z" fill="white"/>
<path d="M180 360C180 375 200 385 256 385C312 385 332 375 332 360" stroke="white" stroke-width="20" stroke-linecap="round"/>
<path d="M180 310C180 298 200 290 256 290C312 290 332 298 332 310C332 322 312 330 256 330C200 330 180 322 180 310Z" fill="white"/>
<path d="M180 310C180 325 200 335 256 335C312 335 332 325 332 310" stroke="white" stroke-width="20" stroke-linecap="round"/>
<path d="M180 260C180 248 200 240 256 240C312 240 332 248 332 260C332 272 312 280 256 280C200 280 180 272 180 260Z" fill="white"/>
<path d="M180 260C180 275 200 285 256 285C312 285 332 275 332 260" stroke="white" stroke-width="20" stroke-linecap="round"/>
<path d="M256 240V180" stroke="white" stroke-width="16" stroke-linecap="round"/>
<path d="M256 180C256 180 210 180 190 140C190 140 180 200 256 200" fill="white"/>
<path d="M256 180C256 180 300 160 320 120C320 120 330 190 256 180" fill="white"/>
</svg>
